<svg width="389" height="431" xmlns="http://www.w3.org/2000/svg"><path d="M355.241 13.727c14.492 1.992 17.265.031 19.355-13.727-2.09 13.758-.033 16.383 14.467 18.375-14.5-1.996-17.266-.031-19.364 13.73 2.099-13.762.033-16.387-14.459-18.379l.001.001zm-339.173 75c14.491 1.992 17.265.031 19.355-13.727-2.09 13.758-.033 16.383 14.466 18.375-14.5-1.996-17.265-.031-19.363 13.73 2.098-13.762.033-16.387-14.46-18.379l.002.001zm192.72 166.902c14.242-3.334 16.129-6.158 13.15-19.752 2.978 13.594 5.84 15.307 20.09 11.97-14.253 3.334-16.13 6.159-13.157 19.758-2.973-13.6-5.842-15.31-20.085-11.977h.001zm-208.56 163c14.242-3.334 16.129-6.158 13.15-19.752 2.978 13.594 5.84 15.307 20.09 11.97-14.253 3.334-16.13 6.159-13.157 19.758-2.973-13.6-5.842-15.31-20.085-11.977h.001z" fill="#EEE" fill-rule="evenodd"/></svg>