<?xml version="1.0" encoding="utf-8"?>
<!-- Generator: Adobe Illustrator 16.0.0, SVG Export Plug-In . SVG Version: 6.00 Build 0)  -->
<!DOCTYPE svg PUBLIC "-//W3C//DTD SVG 1.1//EN" "http://www.w3.org/Graphics/SVG/1.1/DTD/svg11.dtd">
<svg version="1.1" id="Layer_1" xmlns="http://www.w3.org/2000/svg" xmlns:xlink="http://www.w3.org/1999/xlink" x="0px" y="0px"
	 width="125.918px" height="111.488px" viewBox="0 0 125.918 111.488" enable-background="new 0 0 125.918 111.488"
	 xml:space="preserve">
<g>
	<path fill="#FCFCFC" d="M105.19,28.763c-0.074,0.455,0,0.834,0.152,1.138c0.189,0.305,0.416,0.532,0.759,0.646
		c0.342,0.114,0.721,0.114,1.176,0c0.456-0.114,0.834-0.343,1.216-0.646c0.379-0.304,0.682-0.683,0.91-1.101
		c0.266-0.418,0.416-0.836,0.493-1.328c0.038-0.455-0.038-0.837-0.188-1.141c-0.191-0.304-0.457-0.492-0.799-0.606
		s-0.721-0.114-1.176,0c-0.419,0.114-0.835,0.304-1.215,0.646c-0.342,0.304-0.646,0.646-0.911,1.062
		C105.379,27.85,105.229,28.307,105.19,28.763L105.19,28.763z M125.756,39.393c-0.566,1.023-1.252,1.975-2.01,2.849
		c-0.722,0.873-1.518,1.632-2.392,2.315c-0.834,0.684-1.669,1.29-2.542,1.746c-0.873,0.493-1.708,0.835-2.542,1.063
		c-0.798,0.227-1.519,0.304-2.202,0.227c-0.683-0.037-1.289-0.266-1.82-0.607c-0.492-0.341-0.873-0.797-1.178-1.403
		c-0.492,0.683-1.061,1.329-1.631,1.937c-0.684,0.684-1.365,1.29-2.087,1.784c-0.722,0.493-1.479,0.835-2.237,1.063
		c-0.419,0.113-0.837,0.15-1.254,0.15c-0.417-0.037-0.797-0.15-1.101-0.38c-0.343-0.228-0.531-0.568-0.683-1.062
		c0-0.114-0.037-0.229-0.037-0.382c-0.345,0.382-0.686,0.722-1.025,1.102c-0.723,0.685-1.441,1.291-2.239,1.784
		c-0.759,0.531-1.556,0.874-2.276,1.102c-0.722,0.189-1.291,0.189-1.783,0s-0.797-0.646-0.987-1.328
		c-0.037-0.113-0.037-0.305-0.075-0.455c-0.304,0.378-0.645,0.76-0.986,1.139c-0.684,0.684-1.365,1.253-2.088,1.746
		c-0.72,0.493-1.479,0.874-2.238,1.062c-0.418,0.114-0.834,0.19-1.215,0.151c-0.418-0.037-0.758-0.189-1.022-0.455
		c-0.304-0.267-0.495-0.685-0.569-1.29c-0.076-0.607,0-1.443,0.188-2.469l1.403-7.062c0.115-0.493,0.115-0.911,0.078-1.177
		c-0.078-0.268-0.191-0.456-0.344-0.531c-0.189-0.114-0.379-0.114-0.646-0.039c-0.303,0.077-0.645,0.268-0.985,0.532
		c-0.378,0.265-0.759,0.568-1.101,0.911s-0.646,0.722-0.91,1.101L81.17,54.655c-0.114,0.531-0.305,1.024-0.607,1.405
		c-0.268,0.378-0.607,0.683-1.023,0.948c-0.381,0.229-0.76,0.418-1.178,0.532c-0.304,0.075-0.607,0.111-0.873,0.111
		c-0.265,0-0.492-0.074-0.721-0.15l0.684-3.378c-0.152,0.227-0.342,0.455-0.531,0.646c-0.721,0.873-1.519,1.669-2.353,2.354
		c-0.874,0.683-1.708,1.291-2.581,1.747c-0.871,0.491-1.708,0.834-2.542,1.062c-0.797,0.189-1.519,0.267-2.2,0.228
		c-0.684-0.075-1.291-0.266-1.822-0.607c-0.493-0.341-0.873-0.796-1.176-1.441c-0.494,0.684-1.062,1.366-1.633,1.975
		c-0.683,0.685-1.366,1.253-2.087,1.747c-0.721,0.53-1.48,0.873-2.239,1.062c-0.417,0.151-0.834,0.189-1.215,0.151
		c-0.417-0.037-0.758-0.188-1.023-0.455c-0.304-0.266-0.494-0.684-0.569-1.291c-0.076-0.607,0-1.443,0.189-2.468l1.403-7.062
		c0.114-0.379,0.153-0.722,0.153-1.024c0-0.304-0.039-0.531-0.19-0.684c-0.152-0.151-0.38-0.151-0.759-0.076
		c-0.607,0.19-1.177,0.494-1.67,0.949c-0.531,0.456-0.986,1.024-1.441,1.67L51.04,62.741c-0.114,0.532-0.342,1.025-0.608,1.404
		c-0.303,0.38-0.645,0.684-1.023,0.95c-0.38,0.228-0.797,0.417-1.215,0.53c-0.266,0.076-0.531,0.114-0.759,0.114
		c-0.229,0.036-0.455,0-0.646-0.075l0.417-1.977c-0.227,0.229-0.454,0.456-0.682,0.685c-0.722,0.723-1.443,1.329-2.239,1.821
		c-0.76,0.494-1.557,0.874-2.277,1.103c-0.721,0.189-1.291,0.189-1.783,0c-0.494-0.19-0.797-0.646-0.986-1.329
		c-0.039-0.151-0.039-0.303-0.076-0.455c-0.304,0.379-0.646,0.76-1.024,1.138c-0.684,0.685-1.367,1.255-2.05,1.747
		c-0.683,0.494-1.365,0.798-1.973,0.987c-0.417,0.115-0.797,0.152-1.177,0.152c-0.418,0-0.76-0.114-1.063-0.343
		c-0.302-0.189-0.53-0.531-0.683-0.985c-0.189-0.419-0.227-1.025-0.189-1.785c-0.456,0.873-0.949,1.632-1.441,2.354
		c-0.532,0.724-1.063,1.291-1.632,1.784c-0.607,0.456-1.216,0.797-1.821,0.988c-0.76,0.188-1.366,0.188-1.822,0.037
		c-0.493-0.151-0.834-0.418-1.101-0.797c-0.189-0.343-0.342-0.723-0.417-1.18c-0.456,0.57-0.949,1.104-1.442,1.597
		c-0.683,0.684-1.328,1.254-2.011,1.709c-0.646,0.455-1.253,0.759-1.822,0.947c-0.493,0.114-0.986,0.191-1.441,0.191
		c-0.455-0.039-0.873-0.152-1.253-0.343c-0.341-0.229-0.607-0.57-0.759-1.025c-0.152-0.493-0.152-1.101,0-1.937l1.177-5.732
		l-3.795,0.987c-0.722,1.936-1.479,3.604-2.162,5.012C8.54,72.421,7.82,73.56,7.136,74.51c-0.721,0.911-1.404,1.633-2.087,2.163
		c-0.721,0.532-1.442,0.911-2.163,1.103c-0.569,0.151-1.062,0.075-1.479-0.151c-0.418-0.229-0.798-0.646-1.025-1.291
		C0.113,75.727,0,74.929,0,73.942c0-0.646,0.151-1.215,0.417-1.633c0.266-0.455,0.607-0.798,1.024-1.062
		c0.456-0.268,0.911-0.456,1.404-0.609c0.341-0.075,0.607-0.112,0.911-0.075c0.305,0,0.53,0.075,0.797,0.189
		c-0.19,0.495-0.342,0.988-0.456,1.442c-0.075,0.456-0.151,0.873-0.189,1.252c-0.037,0.382-0.075,0.723-0.075,0.95v0.305
		c0.454-0.267,0.91-0.646,1.403-1.178c0.493-0.492,0.986-1.177,1.518-1.974c0.532-0.836,1.14-1.861,1.708-3.075
		c0.607-1.216,1.253-2.697,1.897-4.404c0.683-1.709,1.367-3.721,2.087-6c0.76-2.276,1.518-4.896,2.353-7.857l-0.683,0.19
		c-0.76,0.227-1.404,0.493-1.936,0.798c-0.531,0.341-0.949,0.721-1.29,1.138c-0.341,0.38-0.569,0.797-0.721,1.253
		c-0.152,0.418-0.228,0.837-0.228,1.215c0,0.38,0.075,0.722,0.189,1.025c0.114,0.303,0.304,0.568,0.493,0.76
		c-0.266,0.189-0.493,0.342-0.722,0.455c-0.265,0.113-0.492,0.189-0.721,0.266c-0.568,0.151-1.062,0.114-1.479-0.075
		c-0.38-0.189-0.721-0.494-0.91-0.911c-0.228-0.417-0.343-0.911-0.343-1.48c0-0.53,0.115-1.102,0.304-1.67
		c0.229-0.608,0.569-1.178,1.024-1.747c0.418-0.569,1.025-1.062,1.708-1.519c0.722-0.455,1.556-0.834,2.542-1.103
		c0.874-0.227,1.746-0.418,2.619-0.53c0.835-0.151,1.669-0.267,2.467-0.342c0.798-0.113,1.555-0.188,2.277-0.304
		c0.721-0.114,1.404-0.229,2.049-0.418c0.646-0.189,1.214-0.418,1.708-0.722c0.189,0.074,0.304,0.151,0.379,0.304
		c0.076,0.114,0.114,0.265,0.114,0.456c0,0.227-0.038,0.418-0.152,0.645c-0.075,0.229-0.189,0.418-0.38,0.607
		c-0.188,0.152-0.38,0.304-0.645,0.38l-0.152,0.038l-3.83,18.984c-0.114,0.683-0.152,1.176-0.076,1.518
		c0.076,0.341,0.189,0.57,0.417,0.646c0.228,0.113,0.456,0.113,0.798,0c0.341-0.074,0.759-0.305,1.177-0.567
		c0.416-0.306,0.834-0.647,1.252-1.025c0.228-0.19,0.417-0.419,0.606-0.607c0-0.076,0.039-0.151,0.039-0.229
		c0.036-0.605,0.113-1.177,0.228-1.707l1.593-7.328c0.076-0.266,0.076-0.493,0-0.606c-0.075-0.114-0.189-0.19-0.342-0.114
		c-0.075,0-0.189,0.077-0.265,0.152c-0.114,0.113-0.266,0.229-0.418,0.418c-0.151-0.076-0.266-0.189-0.341-0.381
		c-0.076-0.228-0.076-0.455-0.039-0.723c0.039-0.265,0.19-0.493,0.38-0.758c0.379-0.419,0.797-0.76,1.176-1.139
		c0.418-0.344,0.836-0.646,1.253-0.912c0.417-0.267,0.873-0.417,1.367-0.569c0.379-0.114,0.72-0.152,1.023-0.076
		c0.266,0.037,0.456,0.19,0.569,0.455c0.114,0.229,0.114,0.608,0,1.025l-2.049,10.099c-0.152,0.761-0.115,1.254,0.075,1.521
		c0.19,0.266,0.57,0.304,1.063,0.189c0.606-0.189,1.139-0.494,1.67-0.911c0.493-0.456,0.986-1.024,1.441-1.67l2.011-10.062
		c0.114-0.569,0.304-1.025,0.608-1.405c0.303-0.38,0.645-0.721,1.024-0.949c0.379-0.228,0.759-0.417,1.176-0.529
		c0.303-0.077,0.607-0.114,0.872-0.114c0.266,0,0.532,0.037,0.722,0.114l-2.353,11.77c-0.152,0.683-0.19,1.178-0.114,1.52
		c0.038,0.342,0.189,0.568,0.38,0.683c0.189,0.114,0.455,0.114,0.721,0.039c0.418-0.114,0.873-0.343,1.29-0.607
		c0.455-0.266,0.873-0.607,1.253-0.95c0.227-0.227,0.417-0.418,0.606-0.645c0.039-0.152,0.076-0.304,0.076-0.456l2.163-10.745
		l-1.67,0.456c-0.076-0.342-0.037-0.684,0.038-0.987c0.114-0.341,0.266-0.606,0.493-0.834c0.228-0.229,0.531-0.418,0.873-0.492
		l0.683-0.191l0.607-2.924c0.114-0.532,0.304-1.025,0.607-1.403c0.265-0.381,0.606-0.685,1.024-0.95
		c0.379-0.228,0.759-0.418,1.177-0.531c0.304-0.075,0.607-0.113,0.873-0.113c0.265,0.038,0.492,0.077,0.721,0.152l-0.949,4.669
		l2.467-0.646c0.038,0.341,0.038,0.685-0.075,0.987c-0.114,0.341-0.267,0.606-0.494,0.835c-0.227,0.228-0.493,0.419-0.873,0.493
		l-1.479,0.419l-1.974,9.982c-0.113,0.646-0.152,1.141-0.113,1.48c0.075,0.38,0.189,0.608,0.379,0.685
		c0.19,0.114,0.456,0.114,0.76,0.037c0.417-0.112,0.835-0.304,1.289-0.569c0.418-0.304,0.835-0.606,1.214-0.985
		c0.229-0.19,0.418-0.38,0.608-0.569l3.377-16.782c0.039-0.341,0.039-0.568-0.037-0.684c-0.114-0.113-0.228-0.113-0.418-0.036
		c-0.152,0.075-0.342,0.228-0.531,0.493c-0.228-0.153-0.379-0.304-0.418-0.457c-0.075-0.15-0.075-0.304-0.075-0.454
		c0-0.19,0.151-0.456,0.417-0.798c0.228-0.342,0.569-0.685,1.025-1.063c0.417-0.379,0.872-0.721,1.365-1.024
		c0.493-0.267,0.949-0.493,1.404-0.646c0.645-0.149,1.101-0.112,1.366,0.076c0.304,0.229,0.379,0.686,0.266,1.367l-1.745,8.694
		c0.417-0.723,0.872-1.366,1.328-1.975c0.493-0.569,0.986-1.062,1.518-1.442c0.493-0.417,1.062-0.685,1.632-0.834
		c0.341-0.115,0.683-0.153,1.024-0.153c0.38,0,0.721,0.076,1.024,0.188c0.341,0.115,0.607,0.344,0.835,0.687
		c0.228,0.304,0.342,0.758,0.417,1.29c0.076,0.57,0,1.254-0.151,2.088l-1.632,8.164c-0.113,0.53-0.076,0.872,0.114,1.022
		c0.151,0.19,0.417,0.229,0.758,0.114c0.418-0.114,0.874-0.304,1.291-0.568c0.455-0.305,0.873-0.607,1.252-0.986
		c0.266-0.229,0.531-0.494,0.759-0.76c-0.075-0.417-0.112-0.873-0.112-1.367c0-0.723,0.074-1.52,0.228-2.393
		c0.151-0.91,0.418-1.82,0.722-2.732c0.305-0.95,0.721-1.86,1.176-2.771c0.455-0.873,1.024-1.709,1.67-2.506
		c0.607-0.759,1.291-1.442,2.088-1.974c0.759-0.571,1.632-0.987,2.541-1.254c0.76-0.189,1.404-0.267,1.898-0.189
		c0.493,0.038,0.872,0.189,1.176,0.418c0.267,0.266,0.494,0.531,0.606,0.873c0.115,0.379,0.151,0.721,0.151,1.102
		c0,0.722-0.113,1.441-0.34,2.162c-0.229,0.723-0.646,1.521-1.215,2.354c-0.607,0.875-1.404,1.785-2.468,2.849
		c-1.024,1.024-2.353,2.201-3.983,3.53c0.113,0.57,0.342,1.025,0.606,1.29c0.304,0.305,0.683,0.457,1.101,0.494
		c0.416,0.075,0.912,0.038,1.441-0.114c0.607-0.188,1.215-0.455,1.896-0.835c0.646-0.342,1.291-0.797,1.936-1.289
		c0.646-0.533,1.215-1.063,1.747-1.633c0.53-0.57,0.985-1.178,1.364-1.748l1.443-7.176c0.074-0.304,0.074-0.493,0-0.646
		c-0.076-0.113-0.19-0.152-0.343-0.113c-0.075,0.036-0.188,0.074-0.267,0.188c-0.112,0.076-0.266,0.229-0.416,0.38
		c-0.152-0.037-0.229-0.189-0.342-0.38c-0.076-0.188-0.076-0.417-0.037-0.683c0.037-0.267,0.188-0.532,0.379-0.762
		c0.416-0.418,0.796-0.797,1.177-1.138c0.416-0.381,0.834-0.646,1.252-0.912c0.417-0.265,0.872-0.454,1.365-0.567
		c0.38-0.114,0.722-0.153,1.024-0.114c0.267,0.075,0.455,0.229,0.568,0.456c0.114,0.266,0.114,0.605,0,1.062L83.56,42.24
		c0.493-0.8,1.024-1.52,1.633-2.203c0.606-0.646,1.252-1.214,1.897-1.67c0.683-0.454,1.326-0.798,2.011-0.948
		c0.417-0.152,0.835-0.152,1.215-0.076c0.343,0.112,0.646,0.304,0.872,0.646c0.229,0.342,0.38,0.796,0.418,1.403
		c0.038,0.646-0.038,1.405-0.229,2.354l-1.67,8.163c-0.076,0.494-0.039,0.835,0.152,1.024c0.151,0.151,0.416,0.229,0.758,0.113
		c0.418-0.113,0.873-0.304,1.291-0.607c0.455-0.265,0.834-0.567,1.252-0.948c0.229-0.189,0.418-0.416,0.607-0.607
		c0.038-0.151,0.074-0.341,0.074-0.494l2.164-10.743l-1.67,0.455c-0.075-0.343-0.037-0.683,0.039-0.985
		c0.112-0.304,0.265-0.608,0.492-0.835c0.228-0.229,0.53-0.382,0.873-0.494l0.684-0.19l0.605-2.924
		c0.114-0.531,0.305-0.985,0.606-1.403c0.267-0.381,0.606-0.685,1.024-0.95c0.379-0.228,0.76-0.418,1.176-0.492
		c0.305-0.114,0.607-0.152,0.873-0.114c0.268,0,0.494,0.039,0.723,0.114l-0.948,4.708l2.466-0.685c0.039,0.341,0,0.685-0.074,0.987
		c-0.114,0.342-0.268,0.606-0.494,0.836c-0.229,0.265-0.492,0.417-0.873,0.53l-1.479,0.38l-1.975,9.983
		c-0.113,0.646-0.151,1.18-0.113,1.52c0.076,0.343,0.19,0.57,0.38,0.686c0.189,0.075,0.455,0.112,0.76,0
		c0.416-0.114,0.834-0.305,1.289-0.57c0.418-0.305,0.834-0.607,1.215-0.948c0.228-0.229,0.457-0.456,0.646-0.686l1.858-9.301
		c0.039-0.266,0.039-0.454-0.037-0.607c-0.038-0.113-0.151-0.151-0.305-0.113c-0.074,0-0.188,0.076-0.303,0.152
		c-0.076,0.114-0.229,0.228-0.38,0.418c-0.151-0.076-0.267-0.19-0.342-0.381c-0.076-0.189-0.114-0.454-0.037-0.722
		c0.037-0.266,0.151-0.494,0.379-0.76c0.38-0.379,0.759-0.761,1.177-1.139c0.379-0.344,0.797-0.646,1.252-0.873
		c0.418-0.268,0.873-0.456,1.328-0.607c0.645-0.151,1.1-0.114,1.366,0.076c0.304,0.228,0.379,0.683,0.267,1.367l-2.051,10.25
		c-0.152,0.646-0.189,1.177-0.113,1.519c0.039,0.342,0.189,0.57,0.379,0.685c0.189,0.075,0.457,0.113,0.723,0
		c0.416-0.113,0.873-0.305,1.29-0.57c0.455-0.264,0.873-0.606,1.253-0.948c0.266-0.266,0.529-0.532,0.758-0.759
		c-0.074-0.418-0.113-0.874-0.113-1.367c0-0.873,0.076-1.784,0.267-2.734c0.188-0.948,0.454-1.858,0.834-2.809
		c0.342-0.948,0.76-1.859,1.291-2.734c0.493-0.871,1.062-1.67,1.707-2.392c0.646-0.759,1.329-1.366,2.088-1.897
		c0.72-0.493,1.519-0.872,2.392-1.102c1.327-0.379,2.352-0.379,3.034,0c0.685,0.342,1.024,1.062,1.024,2.165
		c0,0.646-0.113,1.175-0.342,1.632c-0.228,0.493-0.492,0.872-0.873,1.141c-0.342,0.304-0.721,0.492-1.139,0.605
		c-0.229,0.076-0.455,0.114-0.722,0.076c-0.226,0-0.454-0.076-0.646-0.189c0.152-0.304,0.229-0.606,0.305-0.875
		c0.115-0.304,0.15-0.567,0.189-0.834c0.038-0.228,0.075-0.455,0.075-0.606c0-0.304-0.114-0.53-0.341-0.646
		c-0.189-0.113-0.493-0.113-0.911,0c-0.493,0.15-0.948,0.492-1.44,1.024c-0.457,0.531-0.912,1.253-1.291,2.126
		c-0.418,0.873-0.722,1.821-0.986,2.922c-0.229,1.103-0.342,2.241-0.342,3.456c0,0.873,0.151,1.556,0.418,2.013
		c0.266,0.455,0.646,0.76,1.139,0.836c0.492,0.112,1.023,0.112,1.669-0.076c0.606-0.151,1.214-0.418,1.897-0.799
		c0.646-0.379,1.289-0.834,1.936-1.329c0.646-0.492,1.214-1.062,1.745-1.632c0.532-0.567,0.987-1.14,1.366-1.746
		c0.304-0.113,0.531-0.15,0.684-0.075c0.188,0.039,0.266,0.188,0.303,0.343C125.947,38.938,125.872,39.165,125.756,39.393
		L125.756,39.393L125.756,39.393z M72.404,44.367c-0.53,0.149-1.024,0.418-1.481,0.797c-0.416,0.417-0.797,0.873-1.137,1.441
		c-0.342,0.531-0.607,1.141-0.834,1.747c-0.229,0.646-0.418,1.252-0.57,1.897c-0.151,0.646-0.266,1.216-0.342,1.784
		c-0.074,0.568-0.113,1.024-0.113,1.441c1.062-0.986,2.049-1.973,2.847-2.923c0.835-0.949,1.479-1.86,1.937-2.733
		c0.455-0.873,0.682-1.672,0.682-2.393c0-0.417-0.112-0.721-0.266-0.872C72.935,44.367,72.708,44.29,72.404,44.367L72.404,44.367
		L72.404,44.367z M18.291,49.605c-0.304,0.038-0.607,0.077-0.911,0.113c-0.303,0.076-0.606,0.114-0.948,0.153
		c-0.76,2.847-1.48,5.429-2.164,7.744c-0.683,2.315-1.365,4.403-2.011,6.227l3.34-0.874L18.291,49.605L18.291,49.605z"/>
	<path fill="#FCFCFC" d="M24.103,11.378l1.807,2.796l0.607-0.384l-0.493-0.781l0.376-0.238c0.415-0.259,0.672-0.523,0.78-0.811
		c0.103-0.293,0.056-0.611-0.157-0.971c-0.208-0.352-0.469-0.553-0.772-0.599c-0.302-0.047-0.683,0.062-1.132,0.343L24.103,11.378
		L24.103,11.378z M25.678,12.461L25.678,12.461l-0.599-0.949l0.367-0.229c0.206-0.135,0.394-0.19,0.528-0.184
		c0.145,0.001,0.266,0.095,0.363,0.254c0.103,0.169,0.14,0.314,0.115,0.444c-0.018,0.14-0.137,0.261-0.349,0.395L25.678,12.461
		L25.678,12.461z M32.008,8.189L32.008,8.189c-0.174-0.355-0.395-0.555-0.674-0.613c-0.279-0.06-0.658,0.037-1.131,0.275
		l-1.145,0.603l1.576,2.934l0.644-0.343l-0.49-0.936l0.455-0.234l1.122,0.612l0.799-0.393l-1.263-0.702
		C32.203,9.067,32.239,8.665,32.008,8.189L32.008,8.189z M30.488,9.535L30.488,9.535L30.03,8.658l0.504-0.261
		c0.209-0.106,0.383-0.156,0.492-0.139c0.118,0.012,0.213,0.101,0.297,0.268c0.077,0.157,0.099,0.295,0.06,0.414
		c-0.055,0.113-0.19,0.232-0.417,0.348L30.488,9.535L30.488,9.535z M34.461,5.838L34.461,5.838l1.323,3.056
		c0.735-0.315,1.475-0.624,2.22-0.913l-0.24-0.613C37.24,7.57,36.718,7.782,36.2,8.002l-0.269-0.64l1.378-0.561l-0.23-0.583
		l-1.39,0.566L35.42,6.145l1.559-0.632l-0.24-0.614C35.973,5.196,35.215,5.514,34.461,5.838L34.461,5.838z M43.579,6.072
		L43.579,6.072l0.7-0.201l-0.905-3.204l-0.982,0.283l-0.304,2.014l-1.381-1.485l-0.982,0.325l1.077,3.15l0.69-0.229l-0.657-1.993
		l1.411,1.459l0.411-0.126l0.33-2.006L43.579,6.072L43.579,6.072z M47.32,5.088L47.32,5.088l0.71-0.161l-0.72-3.25l-0.746,0.168
		L47.32,5.088L47.32,5.088z M51.82,3.329L51.82,3.329c-0.142-0.133-0.239-0.328-0.284-0.601l-0.297-1.811l-0.742,0.124l0.32,1.84
		c0.081,0.466,0.274,0.812,0.574,1.03c0.309,0.217,0.654,0.275,1.058,0.218c0.402-0.061,0.713-0.228,0.933-0.524
		c0.23-0.302,0.312-0.674,0.249-1.153L53.386,0.6l-0.758,0.104l0.262,1.816c0.039,0.272,0.004,0.488-0.092,0.658
		c-0.097,0.17-0.245,0.268-0.448,0.298C52.146,3.507,51.974,3.46,51.82,3.329L51.82,3.329z M59.803,3.372L59.803,3.372l0.729-0.03
		l-0.115-3.328l-1.021,0.044l-0.775,1.879l-0.985-1.771l-1.031,0.082l0.29,3.316l0.726-0.062L57.459,1.41l1.02,1.759L58.91,3.14
		l0.799-1.864L59.803,3.372L59.803,3.372z M65,0L65,0l-0.094,3.328l0.729,0.021l0.035-0.921l0.435,0.019
		c0.487,0.025,0.853-0.06,1.103-0.229c0.252-0.181,0.392-0.468,0.418-0.886c0.026-0.405-0.074-0.722-0.299-0.936
		c-0.223-0.214-0.599-0.327-1.125-0.354L65,0L65,0z M65.696,1.778L65.696,1.778l0.043-1.119l0.422,0.021
		c0.246,0.011,0.434,0.064,0.541,0.146c0.116,0.083,0.166,0.229,0.154,0.412c-0.011,0.199-0.062,0.341-0.154,0.436
		c-0.095,0.104-0.262,0.142-0.514,0.128L65.696,1.778L65.696,1.778z M73.32,1.833L73.32,1.833c0.058-0.393-0.012-0.68-0.209-0.887
		c-0.196-0.209-0.563-0.346-1.089-0.41l-1.284-0.148l-0.354,3.312l0.725,0.077l0.124-1.047l0.507,0.063L72.32,3.93l0.892,0.131
		l-0.655-1.295C72.986,2.673,73.243,2.354,73.32,1.833L73.32,1.833z M71.307,2.085L71.307,2.085l0.117-0.981l0.562,0.071
		c0.23,0.028,0.404,0.084,0.483,0.161c0.092,0.078,0.118,0.202,0.094,0.388c-0.024,0.174-0.085,0.3-0.183,0.375
		c-0.109,0.065-0.278,0.088-0.541,0.055L71.307,2.085L71.307,2.085z M78.864,3.425L78.864,3.425c-0.066,0.29-0.22,0.514-0.445,0.677
		c-0.237,0.161-0.479,0.207-0.754,0.146c-0.266-0.056-0.468-0.198-0.615-0.441c-0.141-0.243-0.188-0.511-0.129-0.801
		c0.06-0.291,0.207-0.52,0.434-0.687c0.241-0.174,0.491-0.225,0.766-0.167c0.28,0.063,0.488,0.213,0.635,0.472
		C78.892,2.868,78.931,3.137,78.864,3.425L78.864,3.425z M78.831,4.668L78.831,4.668c0.389-0.235,0.655-0.598,0.771-1.067
		c0.115-0.479,0.042-0.92-0.209-1.316c-0.262-0.397-0.645-0.652-1.139-0.766c-0.496-0.103-0.938-0.024-1.342,0.229
		c-0.404,0.257-0.644,0.628-0.736,1.112c-0.088,0.478-0.006,0.914,0.261,1.291c0.265,0.393,0.618,0.633,1.091,0.729
		C77.997,4.986,78.43,4.916,78.831,4.668L78.831,4.668z M82.978,2.795L82.978,2.795l-0.925,3.197l1.066,0.318
		c0.596,0.18,1.076,0.188,1.459-0.01c0.389-0.183,0.668-0.53,0.834-1.02s0.139-0.928-0.08-1.301
		c-0.215-0.385-0.609-0.665-1.19-0.841L82.978,2.795L82.978,2.795z M82.942,5.564L82.942,5.564l0.582-1.934l0.405,0.124
		c0.362,0.113,0.612,0.279,0.737,0.506c0.115,0.223,0.121,0.49,0.02,0.805c-0.104,0.314-0.262,0.518-0.479,0.629
		c-0.229,0.108-0.502,0.108-0.821,0.01L82.942,5.564L82.942,5.564z M88.784,7.405L88.784,7.405
		c-0.054-0.188-0.037-0.403,0.063-0.659l0.68-1.705l-0.712-0.281l-0.673,1.743c-0.17,0.44-0.173,0.842-0.028,1.183
		c0.145,0.342,0.42,0.573,0.795,0.731c0.375,0.157,0.728,0.172,1.069,0.029c0.34-0.14,0.604-0.42,0.799-0.862L91.52,5.87
		l-0.693-0.297l-0.713,1.689c-0.105,0.253-0.248,0.421-0.418,0.517c-0.17,0.097-0.348,0.105-0.537,0.025
		C88.959,7.722,88.838,7.591,88.784,7.405L88.784,7.405z M94.65,10.309L94.65,10.309c-0.241-0.121-0.396-0.298-0.483-0.554
		c-0.082-0.25-0.045-0.516,0.092-0.79c0.137-0.276,0.338-0.457,0.596-0.522c0.264-0.076,0.521-0.044,0.77,0.082
		c0.316,0.164,0.518,0.435,0.582,0.806l0.662-0.245c-0.127-0.54-0.445-0.95-0.943-1.209c-0.442-0.226-0.898-0.272-1.354-0.133
		c-0.458,0.144-0.79,0.447-1.006,0.894s-0.246,0.883-0.103,1.318c0.16,0.435,0.445,0.768,0.896,0.995
		c0.444,0.231,0.925,0.24,1.459,0.052l-0.188-0.66C95.29,10.487,94.967,10.473,94.65,10.309L94.65,10.309z M101.472,11.919
		L101.472,11.919l0.345-0.535c-0.756-0.486-1.521-0.96-2.293-1.422L99.2,10.51l0.818,0.496l-1.407,2.296l0.62,0.384l1.432-2.278
		L101.472,11.919z"/>
	<path fill="#FCFCFC" d="M27.437,100.18c-0.151,0.256-0.366,0.426-0.645,0.501c-0.268,0.081-0.519,0.045-0.767-0.104
		c-0.238-0.146-0.389-0.35-0.446-0.635c-0.049-0.277,0.002-0.545,0.16-0.796c0.157-0.252,0.375-0.412,0.643-0.492
		c0.279-0.079,0.527-0.049,0.758,0.094c0.24,0.145,0.384,0.348,0.43,0.632C27.629,99.659,27.588,99.924,27.437,100.18L27.437,100.18
		z M27.04,101.359L27.04,101.359c0.455-0.115,0.811-0.381,1.052-0.799c0.246-0.429,0.298-0.868,0.185-1.315
		c-0.125-0.45-0.388-0.803-0.799-1.054c-0.415-0.248-0.834-0.32-1.294-0.22c-0.459,0.1-0.817,0.354-1.085,0.771
		c-0.262,0.404-0.343,0.837-0.226,1.3c0.115,0.464,0.379,0.829,0.815,1.088C26.121,101.394,26.572,101.473,27.04,101.359
		L27.04,101.359z M33.749,102.883L33.749,102.883c0.166-0.359,0.184-0.653,0.062-0.903c-0.122-0.246-0.411-0.486-0.865-0.707
		l-1.102-0.552l-1.516,2.965L31,104.027l0.47-0.943l0.469,0.228l0.225,1.282l0.848,0.394l-0.277-1.437
		C33.19,103.594,33.528,103.362,33.749,102.883L33.749,102.883z M31.76,102.503L31.76,102.503l0.441-0.885l0.495,0.239
		c0.215,0.104,0.346,0.206,0.406,0.308c0.049,0.098,0.046,0.229-0.034,0.399c-0.076,0.158-0.173,0.259-0.299,0.294
		c-0.112,0.031-0.289-0.007-0.517-0.115L31.76,102.503L31.76,102.503z M36.15,106.34L36.15,106.34l0.711,0.281l1.211-3.104
		l-0.679-0.268L36.15,106.34L36.15,106.34z M42.669,107.789L42.669,107.789c-0.188,0.048-0.417,0.034-0.662-0.041
		c-0.256-0.079-0.44-0.24-0.563-0.475c-0.124-0.232-0.13-0.504-0.032-0.806c0.099-0.306,0.258-0.516,0.502-0.636
		c0.246-0.131,0.492-0.159,0.761-0.076c0.135,0.042,0.26,0.114,0.36,0.192c0.108,0.092,0.209,0.211,0.318,0.379l0.521-0.435
		c-0.244-0.399-0.591-0.659-1.041-0.802c-0.439-0.135-0.867-0.094-1.286,0.112c-0.42,0.208-0.708,0.554-0.864,1.021
		c-0.158,0.471-0.129,0.906,0.087,1.325c0.219,0.41,0.578,0.694,1.052,0.84c0.58,0.185,1.079,0.125,1.503-0.14l0.323-1.13
		l-0.718-0.207L42.669,107.789L42.669,107.789z M46.601,109.635L46.601,109.635l0.746,0.169l0.719-3.251l-0.711-0.162
		L46.601,109.635L46.601,109.635z M53.494,109.687L53.494,109.687c-0.451-0.777-0.883-1.567-1.299-2.353l-0.678-0.112l-0.55,3.283
		l0.755,0.126l0.323-2.062c0.414,0.764,0.844,1.535,1.29,2.297l0.759,0.096l0.406-3.307l-0.725-0.091L53.494,109.687L53.494,109.687
		z M60.999,111.473L60.999,111.473c-0.461-1.123-0.899-2.245-1.315-3.38l-0.708-0.034c-0.531,1.079-1.084,2.151-1.658,3.227
		l0.807,0.055l0.37-0.69l1.411,0.073l0.285,0.728L60.999,111.473L60.999,111.473z M59.647,110.048L59.647,110.048l-0.838-0.04
		l0.479-0.944L59.647,110.048L59.647,110.048z M66.459,111.415L66.459,111.415l-0.03-0.659l-1.437,0.055l-0.074-2.67l-0.729,0.021
		l0.06,3.329C64.985,111.47,65.724,111.455,66.459,111.415L66.459,111.415z M70.77,107.731L70.77,107.731l0.375,3.309l1.161-0.143
		c0.647-0.078,1.106-0.3,1.368-0.646c0.268-0.339,0.354-0.773,0.273-1.284c-0.078-0.509-0.294-0.89-0.646-1.138
		c-0.354-0.24-0.815-0.307-1.393-0.238L70.77,107.731L70.77,107.731z M71.822,110.294L71.822,110.294l-0.247-2.006l0.407-0.054
		c0.365-0.043,0.655,0.003,0.853,0.15c0.207,0.148,0.33,0.385,0.379,0.712c0.049,0.325-0.004,0.577-0.168,0.78
		c-0.149,0.199-0.404,0.313-0.748,0.355L71.822,110.294L71.822,110.294z M76.995,106.733L76.995,106.733l0.678,3.261
		c0.818-0.167,1.636-0.354,2.445-0.554l-0.156-0.64l-1.692,0.393l-0.147-0.677l1.463-0.337l-0.147-0.608l-1.449,0.336l-0.147-0.678
		l1.604-0.372l-0.156-0.641C78.524,106.402,77.762,106.577,76.995,106.733L76.995,106.733z M83.752,105.562L83.752,105.562
		c0.291-0.086,0.6-0.078,0.947,0.04l0.18-0.625c-0.199-0.086-0.418-0.129-0.646-0.136c-0.227-0.006-0.449,0.035-0.654,0.097
		c-0.318,0.099-0.559,0.266-0.716,0.485c-0.165,0.235-0.2,0.497-0.108,0.802c0.091,0.307,0.24,0.504,0.449,0.588
		c0.223,0.092,0.521,0.127,0.926,0.095c0.252-0.009,0.428-0.008,0.517,0.021c0.104,0.035,0.172,0.095,0.201,0.189
		c0.03,0.094,0.016,0.189-0.042,0.267c-0.057,0.078-0.152,0.145-0.28,0.184c-0.299,0.093-0.664,0.045-1.106-0.152l-0.271,0.643
		c0.52,0.264,1.04,0.304,1.557,0.146c0.365-0.114,0.623-0.309,0.777-0.554c0.154-0.248,0.193-0.516,0.1-0.797
		c-0.096-0.282-0.254-0.472-0.469-0.562c-0.216-0.091-0.492-0.127-0.808-0.104c-0.324,0.022-0.544,0.02-0.644-0.008
		c-0.093-0.04-0.156-0.101-0.183-0.185c-0.028-0.095-0.021-0.179,0.021-0.26C83.557,105.659,83.639,105.599,83.752,105.562
		L83.752,105.562z M89.172,106.57L89.172,106.57l0.711-0.279l-1.248-3.085l-0.678,0.267L89.172,106.57L89.172,106.57z
		 M94.909,103.153L94.909,103.153c-0.104,0.162-0.277,0.316-0.51,0.428c-0.24,0.115-0.484,0.125-0.734,0.038
		c-0.252-0.085-0.439-0.275-0.576-0.562c-0.139-0.287-0.168-0.554-0.072-0.807c0.091-0.266,0.251-0.452,0.504-0.575
		c0.137-0.065,0.268-0.097,0.393-0.11c0.141-0.011,0.297,0.011,0.492,0.06l0.082-0.671c-0.453-0.128-0.885-0.078-1.298,0.127
		c-0.424,0.204-0.707,0.526-0.869,0.97c-0.161,0.437-0.136,0.884,0.072,1.333c0.207,0.449,0.528,0.749,0.974,0.906
		c0.438,0.145,0.896,0.104,1.342-0.11c0.545-0.271,0.871-0.65,0.998-1.133l-0.541-1.043l-0.666,0.337L94.909,103.153L94.909,103.153
		z M100.452,99.552L100.452,99.552c-0.842-0.306-1.683-0.643-2.502-0.977l-0.592,0.346l1.678,2.877l0.658-0.388l-1.07-1.792
		c0.809,0.321,1.633,0.643,2.461,0.938l0.646-0.407l-1.803-2.802l-0.616,0.39L100.452,99.552z"/>
	<path fill="#FCFCFC" d="M51.798,21.813v0.494v3.949c0,0.229,0.229,0.455,0.456,0.455h21.403c0.266,0,0.454-0.228,0.454-0.455
		v-3.949v-0.494c0.493-0.265,0.872-0.797,0.872-1.403c0-0.872-0.72-1.558-1.594-1.558c-0.871,0-1.557,0.686-1.557,1.558
		c0,0.606,0.342,1.14,0.875,1.403v0.494c0,1.062-0.875,1.937-1.937,1.937c-1.024,0-1.897-0.873-1.897-1.937v-0.494
		c0.531-0.265,0.873-0.797,0.873-1.403c0-0.872-0.722-1.558-1.557-1.558c-0.873,0-1.593,0.686-1.593,1.558
		c0,0.606,0.378,1.14,0.87,1.403v0.494c0,1.062-0.834,1.937-1.896,1.937c-1.063,0-1.897-0.873-1.897-1.937v-0.494
		c0.494-0.265,0.834-0.797,0.834-1.403c0-0.872-0.682-1.558-1.555-1.558c-0.872,0-1.555,0.686-1.555,1.558
		c0,0.606,0.341,1.14,0.835,1.403v0.494c0,1.062-0.835,1.937-1.897,1.937c-1.025,0-1.897-0.873-1.897-1.937v-0.494
		c0.531-0.265,0.872-0.797,0.872-1.403c0-0.872-0.721-1.558-1.594-1.558c-0.835,0-1.556,0.686-1.556,1.558
		c0,0.606,0.342,1.14,0.873,1.403v0.494c0,1.062-0.873,1.937-1.897,1.937c-1.062,0-1.936-0.873-1.936-1.937v-0.494
		c0.531-0.265,0.873-0.797,0.873-1.403c0-0.872-0.683-1.558-1.556-1.558s-1.556,0.686-1.556,1.558
		C50.964,21.017,51.306,21.549,51.798,21.813L51.798,21.813z M52.254,29.711L52.254,29.711h21.403c0.266,0,0.454-0.229,0.454-0.456
		v-1.062c0-0.266-0.188-0.455-0.454-0.455H52.254c-0.228,0-0.456,0.189-0.456,0.455v1.062
		C51.798,29.482,52.026,29.711,52.254,29.711z"/>
	<path fill="#FCFCFC" d="M41.201,84.427l-0.369-0.823h-1.604l-0.37,0.823h-0.904l1.645-3.826h0.822l1.687,3.826H41.201
		L41.201,84.427z M40.008,81.753L40.008,81.753l-0.451,1.109h0.945L40.008,81.753L40.008,81.753z M48.727,82.041L48.727,82.041
		l-1.069,2.099h-0.492l-1.029-2.099v2.386h-0.862v-3.826h1.15l0.987,2.1l0.986-2.1h1.151v3.826h-0.822V82.041L48.727,82.041z
		 M56.006,80.601L56.006,80.601v0.781h-1.892v0.781h1.727v0.739h-1.727v0.783h1.974v0.74H53.25V80.6L56.006,80.601L56.006,80.601z
		 M62.708,81.876L62.708,81.876c0,0.616-0.246,1.026-0.74,1.191l0.945,1.358h-1.027l-0.864-1.193h-0.575v1.193h-0.863V80.6h1.438
		c0.617,0,1.028,0.082,1.275,0.287C62.544,81.096,62.708,81.423,62.708,81.876L62.708,81.876z M61.063,82.451L61.063,82.451
		c0.287,0,0.493-0.04,0.575-0.124c0.123-0.081,0.164-0.246,0.164-0.451s-0.041-0.328-0.164-0.412
		c-0.082-0.082-0.288-0.124-0.575-0.124h-0.617v1.111H61.063L61.063,82.451z M66.286,80.601L66.286,80.601h0.863v3.826h-0.863
		V80.601L66.286,80.601z M72.62,83.687L72.62,83.687c0.409,0,0.739-0.164,1.026-0.494l0.534,0.534
		c-0.412,0.494-0.946,0.741-1.521,0.741c-0.617,0-1.111-0.163-1.48-0.536c-0.37-0.37-0.575-0.863-0.575-1.438
		c0-0.534,0.205-1.028,0.575-1.396c0.41-0.413,0.863-0.578,1.439-0.578c0.656,0,1.149,0.247,1.604,0.699l-0.534,0.618
		c-0.288-0.33-0.617-0.495-1.026-0.495c-0.33,0-0.578,0.083-0.824,0.288c-0.246,0.248-0.328,0.495-0.328,0.864
		c0,0.37,0.082,0.658,0.328,0.864C72.042,83.562,72.29,83.687,72.62,83.687L72.62,83.687z M80.349,84.427L80.349,84.427
		l-0.369-0.823h-1.604l-0.371,0.823h-0.903l1.646-3.826h0.822l1.688,3.826H80.349L80.349,84.427z M79.157,81.753L79.157,81.753
		l-0.453,1.109h0.945L79.157,81.753L79.157,81.753z M87.092,80.601L87.092,80.601h0.863v3.826h-0.863l-1.809-2.386v2.386H84.42
		v-3.826h0.822l1.85,2.468V80.601L87.092,80.601z M49.59,91.132L49.59,91.132h-1.686v-3.825h1.521c0.247,0,0.452,0.042,0.658,0.082
		c0.204,0.083,0.329,0.165,0.411,0.248c0.205,0.204,0.287,0.41,0.287,0.698s-0.123,0.494-0.287,0.657
		c-0.082,0.042-0.124,0.084-0.164,0.084c0,0-0.043,0.041-0.124,0.081c0.246,0.042,0.41,0.164,0.575,0.329
		c0.124,0.123,0.207,0.328,0.207,0.576c0,0.288-0.083,0.534-0.289,0.739C50.495,91.01,50.125,91.132,49.59,91.132L49.59,91.132z
		 M48.769,88.869L48.769,88.869h0.41c0.247,0,0.411-0.04,0.535-0.081c0.124-0.084,0.164-0.165,0.164-0.329s-0.04-0.288-0.164-0.37
		c-0.082-0.042-0.288-0.083-0.535-0.083h-0.41V88.869L48.769,88.869z M48.769,90.434L48.769,90.434h0.575
		c0.246,0,0.452-0.041,0.575-0.124c0.124-0.041,0.165-0.165,0.165-0.33c0-0.204-0.041-0.328-0.165-0.369
		c-0.164-0.04-0.37-0.083-0.658-0.083h-0.492V90.434L48.769,90.434z M57.567,88.581L57.567,88.581c0,0.618-0.246,0.988-0.739,1.193
		l0.986,1.356h-1.068l-0.863-1.233h-0.576v1.233h-0.864v-3.825h1.44c0.616,0,1.027,0.082,1.274,0.286
		C57.445,87.802,57.567,88.13,57.567,88.581L57.567,88.581z M55.924,89.157L55.924,89.157c0.287,0,0.492-0.04,0.616-0.123
		c0.082-0.082,0.124-0.246,0.124-0.453c0-0.205-0.042-0.369-0.165-0.41c-0.083-0.082-0.288-0.124-0.575-0.124h-0.617v1.11H55.924
		L55.924,89.157z M63.9,91.132L63.9,91.132l-0.368-0.822h-1.605l-0.329,0.822h-0.945l1.686-3.825h0.823l1.644,3.825H63.9
		L63.9,91.132z M62.749,88.459L62.749,88.459l-0.493,1.11h0.945L62.749,88.459L62.749,88.459z M70.687,87.307L70.687,87.307h0.862
		v3.825h-0.862l-1.853-2.385v2.385h-0.821v-3.825h0.78l1.894,2.469V87.307L70.687,87.307z M76.566,87.307L76.566,87.307
		c0.698,0,1.233,0.165,1.603,0.495c0.33,0.328,0.535,0.821,0.535,1.397c0,0.615-0.162,1.068-0.535,1.397
		c-0.369,0.37-0.903,0.534-1.644,0.534h-1.315v-3.825L76.566,87.307L76.566,87.307z M76.606,90.393L76.606,90.393
		c0.412,0,0.699-0.124,0.905-0.288c0.206-0.206,0.327-0.494,0.327-0.863c0-0.411-0.121-0.7-0.327-0.905s-0.535-0.288-0.945-0.288
		h-0.494v2.346L76.606,90.393L76.606,90.393z"/>
	<path fill="#FCFCFC" d="M91.698,81.958h6.58v0.534h-6.58V81.958L91.698,81.958z M27.632,81.958L27.632,81.958h6.579v0.534h-6.579
		V81.958z"/>
</g>
</svg>
