<?xml version="1.0" encoding="iso-8859-1"?>
<!-- Generator: Adobe Illustrator 19.0.0, SVG Export Plug-In . SVG Version: 6.00 Build 0)  -->
<svg version="1.1" id="Capa_1" xmlns="http://www.w3.org/2000/svg" xmlns:xlink="http://www.w3.org/1999/xlink" x="0px" y="0px"
	 viewBox="0 0 512 512" style="enable-background:new 0 0 512 512;" xml:space="preserve">
<g>
	<g>
		<path d="M445.995,182.316c0-26.071-14.452-49.372-37.481-61.514c2.805-15.87-0.802-32.135-10.369-45.743
			c-9.878-14.053-24.625-23.258-41.401-26.114c-1.097-11.409-5.864-22.12-13.874-30.874C332.363,6.587,317.282,0,301.493,0
			C282.683,0,266.04,9.189,256,23.201C245.96,9.189,229.316,0,210.506,0c-15.789,0-30.87,6.587-41.377,18.072
			c-8.01,8.755-12.777,19.465-13.874,30.874c-16.776,2.855-31.522,12.061-41.401,26.113c-9.566,13.608-13.174,29.873-10.369,45.743
			c-23.031,12.141-37.482,35.441-37.482,61.514c0,22.884,11.137,43.722,29.715,56.744c-10.689,16.857-12.298,37.147-4.015,56.244
			c10.154,23.409,32.923,38.533,58.01,38.533c1.953,0,3.917-0.09,5.888-0.268c1.552,10.394,6.172,20.256,13.399,28.21
			c10.516,11.575,25.644,18.213,41.506,18.213c1.088,0,2.167-0.039,3.239-0.1l-17.333,44.45c-1.822,4.705-1.368,9.591,1.246,13.408
			c2.633,3.844,7.291,6.232,12.155,6.232h19.181l-13.109,49.938c-1.775,6.786,1.411,13.635,7.749,16.657
			c2.015,0.961,4.133,1.424,6.219,1.424c4.395,0,8.647-2.056,11.483-5.845l72.266-94.026c3.44-4.491,4.066-10.339,1.635-15.263
			c-2.416-4.893-7.41-7.933-13.034-7.933h-16.223l5.378-9.864c3.288,0.595,6.672,0.921,10.135,0.921
			c15.862,0,30.989-6.638,41.505-18.213c7.227-7.954,11.848-17.817,13.4-28.21c1.969,0.178,3.931,0.268,5.881,0.268
			c0.002,0,0.005,0,0.007,0c25.087-0.003,47.858-15.131,58.011-38.539c8.281-19.095,6.672-39.382-4.017-56.238
			C434.859,226.038,445.995,205.201,445.995,182.316z M210.505,359.992c-10.236,0-19.969-4.251-26.702-11.662
			c-5.025-5.53-7.986-12.264-8.642-19.413c18.03-7.159,22.688-19.38,26.183-28.581c2.937-7.729,4.411-11.609,12.78-13.852
			c5.335-1.43,8.501-6.913,7.071-12.247c-1.43-5.334-6.913-8.503-12.247-7.071c-18.254,4.892-22.904,17.13-26.298,26.065
			c-3.42,9.002-5.68,14.949-20.024,18.792c-0.012,0.003-0.024,0.008-0.037,0.012c-0.01,0.003-0.02,0.003-0.031,0.006
			c-4.321,1.19-8.643,1.794-12.845,1.794c-17.113,0-32.681-10.399-39.662-26.492c-6.679-15.397-3.758-31.97,7.813-44.333
			c2.178-2.328,3.116-5.554,2.525-8.687c-0.591-3.132-2.64-5.795-5.517-7.169c-17.808-8.506-28.869-25.688-28.869-44.839
			c0-20.663,12.865-38.921,32.774-46.517c5.007-1.91,7.618-7.427,5.921-12.51c-4.155-12.444-2.144-25.83,5.517-36.728
			c8.038-11.435,20.835-18.19,35.119-18.545c17.009,0.04,20.765,6.829,25.951,16.216c4.726,8.552,11.197,20.266,28.598,20.266
			c5.523,0,10-4.477,10-10s-4.477-10-10-10c-5.153,0-6.502-1.628-11.093-9.938c-5.084-9.201-12.437-22.492-33.339-25.782
			c1.035-6.333,3.907-12.26,8.432-17.206C190.613,24.217,200.316,20,210.506,20c19.572,0,35.494,15.324,35.494,34.159v135.254
			c-23.479-2.284-29.347-13.018-36.537-26.214c-7.037-12.916-15.794-28.989-42.113-31.773c-5.487-0.583-10.416,3.4-10.997,8.893
			c-0.581,5.492,3.401,10.416,8.893,10.997c15.882,1.68,20.168,9.546,26.654,21.453c2.348,4.31,4.853,8.893,8.041,13.316
			c-5.268,5.354-13.216,10.9-22.235,15.372c-4.948,2.453-6.971,8.453-4.518,13.401c1.746,3.521,5.287,5.56,8.967,5.56
			c1.492,0,3.007-0.335,4.434-1.043c11.206-5.556,20.837-12.351,27.753-19.435c7.566,4.829,17.651,8.383,31.657,9.526v116.37
			C246,344.669,230.077,359.992,210.505,359.992z M290.835,408.934l-48.543,63.159l9.338-35.571
			c0.787-2.999,0.139-6.192-1.754-8.647c-1.894-2.454-4.818-3.892-7.918-3.892h-23.938l19.928-51.105
			c7.169-3.999,13.339-9.508,18.054-16.087c4.361,6.086,9.964,11.264,16.456,15.171l-12.095,22.185
			c-1.689,3.098-1.62,6.858,0.182,9.892c1.802,3.035,5.069,4.895,8.598,4.895H290.835z M397.127,227.156
			c-2.876,1.374-4.926,4.037-5.517,7.169c-0.591,3.133,0.347,6.359,2.525,8.687c11.569,12.363,14.491,28.934,7.814,44.329
			c-6.98,16.094-22.549,26.495-39.664,26.497c-0.002,0-0.003,0-0.005,0c-4.197,0-8.517-0.604-12.838-1.794
			c-0.011-0.003-0.022-0.004-0.033-0.007c-0.012-0.003-0.023-0.008-0.035-0.011c-14.344-3.844-16.604-9.791-20.024-18.792
			c-3.396-8.936-8.046-21.174-26.298-26.065c-5.336-1.43-10.818,1.736-12.247,7.071c-1.43,5.335,1.736,10.818,7.071,12.247
			c8.369,2.243,9.843,6.123,12.78,13.852c3.496,9.202,8.154,21.423,26.183,28.581c-0.656,7.15-3.618,13.883-8.642,19.413
			c-6.735,7.409-16.468,11.66-26.704,11.66c-19.571,0-35.493-15.324-35.493-34.159v-71.541c0.005-18.011,9.482-26.967,18.352-29.344
			c11.007-2.951,22.534,2.784,29.36,14.609c2.761,4.782,8.876,6.421,13.66,3.66c4.783-2.761,6.422-8.877,3.66-13.66
			c-11.311-19.593-32.152-29.208-51.857-23.927c-4.83,1.294-9.246,3.383-13.175,6.134v-64.503
			c21.031,1.782,27.328,9.48,35.044,18.913c6.821,8.339,14.552,17.79,31.199,23.085c1.008,0.32,2.029,0.473,3.033,0.473
			c4.239,0,8.174-2.717,9.527-6.972c1.674-5.263-1.236-10.887-6.499-12.561c-10.989-3.495-15.751-9.317-21.781-16.689
			c-9.276-11.34-19.681-24.052-50.524-26.29v-73.06C266,35.323,281.923,20,301.493,20c10.19,0,19.894,4.218,26.621,11.572
			c4.526,4.947,7.397,10.873,8.433,17.206c-20.903,3.291-28.255,16.582-33.339,25.782c-4.591,8.31-5.94,9.938-11.093,9.938
			c-5.523,0-10,4.477-10,10c0,5.523,4.477,10,10,10c17.401,0,23.873-11.713,28.598-20.266c5.187-9.388,8.942-16.176,25.951-16.216
			c14.285,0.355,27.082,7.11,35.12,18.545c7.661,10.898,9.672,24.284,5.517,36.728c-1.697,5.083,0.914,10.6,5.921,12.51
			c19.91,7.596,32.774,25.854,32.774,46.517C425.996,201.469,414.934,218.65,397.127,227.156z"/>
	</g>
</g>
<g>
	<g>
		<path d="M363.701,173.369h-0.126c-5.523,0-10,4.477-10,10s4.477,10,10,10h0.126c5.523,0,10-4.477,10-10
			S369.224,173.369,363.701,173.369z"/>
	</g>
</g>
<g>
	<g>
		<path d="M165.317,217.835c-1.103-5.41-6.389-8.905-11.797-7.797c-0.025,0.005-0.195,0.041-0.22,0.046
			c-5.402,1.146-8.853,6.455-7.707,11.857c0.998,4.703,5.149,7.927,9.772,7.927c0.687,0,1.385-0.071,2.085-0.22
			c0.004,0,0.07-0.015,0.096-0.021C162.942,228.511,166.42,223.237,165.317,217.835z"/>
	</g>
</g>
<g>
	<g>
		<path d="M68.941,297.994c-2.762-4.783-8.878-6.423-13.66-3.66l-17.32,10c-4.783,2.761-6.422,8.877-3.66,13.66
			c1.852,3.209,5.213,5.002,8.669,5.002c1.696,0,3.416-0.433,4.991-1.342l17.32-10C70.064,308.892,71.703,302.776,68.941,297.994z"
			/>
	</g>
</g>
<g>
	<g>
		<path d="M148.002,377.054c-4.782-2.762-10.898-1.122-13.66,3.66l-10,17.32c-2.762,4.783-1.123,10.899,3.66,13.66
			c1.575,0.91,3.294,1.342,4.991,1.342c3.456,0,6.817-1.794,8.67-5.002l10-17.32C154.424,385.932,152.785,379.816,148.002,377.054z"
			/>
	</g>
</g>
<g>
	<g>
		<path d="M387.657,398.034l-10-17.32c-2.761-4.784-8.878-6.423-13.66-3.66c-4.783,2.761-6.422,8.878-3.66,13.66l10,17.32
			c1.852,3.208,5.213,5.002,8.669,5.002c1.696,0,3.416-0.433,4.991-1.342C388.78,408.933,390.419,402.816,387.657,398.034z"/>
	</g>
</g>
<g>
	<g>
		<path d="M474.039,304.333l-17.321-10c-4.783-2.763-10.898-1.122-13.66,3.66c-2.762,4.783-1.123,10.899,3.66,13.66l17.321,10
			c1.575,0.91,3.294,1.342,4.991,1.342c3.456,0,6.817-1.794,8.669-5.002C480.46,313.21,478.821,307.095,474.039,304.333z"/>
	</g>
</g>
<g>
</g>
<g>
</g>
<g>
</g>
<g>
</g>
<g>
</g>
<g>
</g>
<g>
</g>
<g>
</g>
<g>
</g>
<g>
</g>
<g>
</g>
<g>
</g>
<g>
</g>
<g>
</g>
<g>
</g>
</svg>
