<svg width="93" height="20" viewBox="0 0 93 20" fill="none" xmlns="http://www.w3.org/2000/svg">
<path d="M3.376 4.816V9.928H11.488V12.568H3.376V19H0.256V2.2H12.52V4.816H3.376ZM15.2493 1.192H18.2493V19H15.2493V1.192ZM22.1868 6.184H25.1868V19H22.1868V6.184ZM23.6988 4.072C23.1548 4.072 22.6988 3.904 22.3308 3.568C21.9628 3.216 21.7788 2.784 21.7788 2.272C21.7788 1.76 21.9628 1.336 22.3308 0.999999C22.6988 0.647999 23.1548 0.472 23.6988 0.472C24.2428 0.472 24.6988 0.639999 25.0668 0.975999C25.4348 1.296 25.6188 1.704 25.6188 2.2C25.6188 2.728 25.4348 3.176 25.0668 3.544C24.7148 3.896 24.2588 4.072 23.6988 4.072ZM37.2843 19L33.9963 14.56L30.6842 19H27.3723L32.3643 12.496L27.5883 6.184H30.9243L34.0683 10.384L37.2123 6.184H40.4523L35.6523 12.448L40.6683 19H37.2843Z" fill="#33373F"/>
<path d="M58.0981 2.2V19H54.9781V11.8H46.2901V19H43.1701V2.2H46.2901V9.136H54.9781V2.2H58.0981ZM74.7198 6.184V19H71.8638V17.368C71.3838 17.944 70.7838 18.392 70.0638 18.712C69.3438 19.016 68.5678 19.168 67.7358 19.168C66.0238 19.168 64.6718 18.696 63.6798 17.752C62.7038 16.792 62.2158 15.376 62.2158 13.504V6.184H65.2158V13.096C65.2158 14.248 65.4718 15.112 65.9838 15.688C66.5118 16.248 67.2558 16.528 68.2158 16.528C69.2878 16.528 70.1358 16.2 70.7598 15.544C71.3998 14.872 71.7198 13.912 71.7198 12.664V6.184H74.7198ZM85.7517 6.04C86.9997 6.04 88.1117 6.312 89.0877 6.856C90.0797 7.4 90.8557 8.168 91.4157 9.16C91.9757 10.152 92.2557 11.296 92.2557 12.592C92.2557 13.888 91.9757 15.04 91.4157 16.048C90.8557 17.04 90.0797 17.808 89.0877 18.352C88.1117 18.896 86.9997 19.168 85.7517 19.168C84.8717 19.168 84.0637 19.016 83.3277 18.712C82.6077 18.408 81.9997 17.952 81.5037 17.344V19H78.6477V1.192H81.6477V7.744C82.1597 7.184 82.7597 6.76 83.4477 6.472C84.1517 6.184 84.9197 6.04 85.7517 6.04ZM85.4157 16.6C86.5197 16.6 87.4237 16.232 88.1277 15.496C88.8477 14.76 89.2077 13.792 89.2077 12.592C89.2077 11.392 88.8477 10.424 88.1277 9.688C87.4237 8.952 86.5197 8.584 85.4157 8.584C84.6957 8.584 84.0477 8.752 83.4717 9.088C82.8957 9.408 82.4397 9.872 82.1037 10.48C81.7677 11.088 81.5997 11.792 81.5997 12.592C81.5997 13.392 81.7677 14.096 82.1037 14.704C82.4397 15.312 82.8957 15.784 83.4717 16.12C84.0477 16.44 84.6957 16.6 85.4157 16.6Z" fill="#795AB0"/>
</svg>
